<svg class="reaction-art pirate-cat" viewBox="0 0 40 40" width="128" height="128" aria-hidden="true" focusable="false" data-cat-reaction="laugh"><path d="M8 14 7 4q7 0 11 7h5q4-7 10-7l-1 12q5 7 0 13-4 5-13 5S5 30 5 23q0-6 3-9Z" fill="#ffc78e" stroke="#634854" stroke-width="1.4" stroke-linejoin="round"/><path d="m10 8 1 7 5-3Zm18 4 3-4-1 7Z" fill="#e9989d"/><ellipse cx="21" cy="26" rx="10" ry="6" fill="#ffe3ba"/><path d="m10 13 20 10" stroke="#403449" stroke-width="2"/><path d="M9 14q4-3 9 1v6q-5 5-9-1Z" fill="#34313f"/><path d="M11 16h3" stroke="#666171" stroke-width="1" stroke-linecap="round"/><path d="m19 21 2 2 2-2Z" fill="#b9747c"/><path d="m5 22 5 1m-5 2h5m23-2 4-1m-4 3h5" stroke="#a87567" stroke-width="1" stroke-linecap="round"/><path d="m23 14 5 3-5 3" stroke="#403449" stroke-width="2" fill="none" stroke-linecap="round" stroke-linejoin="round"/><path d="M16 23q5 10 10 0Z" fill="#713d4e"/><ellipse cx="21" cy="28" rx="2.6" ry="1.2" fill="#f294a6"/><path d="M30 20q6 5 3 7-4 1-3-7Z" fill="#75c8ef"/></svg>